<?xml version="1.0" encoding="utf-8"?>
<!-- Generator: Adobe Illustrator 25.2.0, SVG Export Plug-In . SVG Version: 6.00 Build 0)  -->
<svg version="1.1" id="Layer_1" xmlns="http://www.w3.org/2000/svg" xmlns:xlink="http://www.w3.org/1999/xlink" x="0px" y="0px"
	 viewBox="0 0 160 90" style="enable-background:new 0 0 160 90;" xml:space="preserve">
<style type="text/css">
	.st0{opacity:0.18;fill-rule:evenodd;clip-rule:evenodd;fill:#AFAFAF;}
	.st1{opacity:0.35;}
	.st2{fill-rule:evenodd;clip-rule:evenodd;fill:#AFAFAF;}
</style>
<rect class="st0" width="160" height="90"/>
<desc>Created with Sketch.</desc>
<g id="Clip-2">
</g>
<g id="Clip-10">
</g>
<g class="st1">
	<path class="st2" d="M56.6,33.8c0-0.5,0.3-0.9,0.8-1.1v-1.9h-1.9v4.2h-0.1c-0.4,0-0.6-0.4-0.7-0.6l-1-2.1c-0.5-1-1.3-1.5-2.3-1.5
		h-1.9v5.9h1.9v-4.2h0.1c0.4,0,0.7,0.4,0.7,0.6l1,2.1c0.4,1,1.3,1.5,2.3,1.5h1.9v-1.9C57,34.8,56.6,34.3,56.6,33.8z"/>
	<path class="st2" d="M78.6,30.9l-2.3,4.4l-2.4-4.4h-12H58v1.9c0.5,0.1,0.8,0.6,0.8,1.1c0,0.5-0.3,0.9-0.8,1.1v1.9h3.9v0h1.2
		c1.8,0,2.6-1,2.6-2.7v-0.6c0-0.2,0-0.7-0.1-1.1h2.8v4.5h1.8v-4.5h2.5l2.5,4.5h2.3l3.1-5.9H78.6z M63.9,34.4c0,0.6-0.3,0.9-1,0.9h-1
		v0h-2v-3.1h2v0h1c0.7,0,1,0.4,1,0.9V34.4z"/>
</g>
<g class="st1">
	<path class="st2" d="M93,32.8c-12.3-0.1-12.7,7.9-12.7,7.9s2.2-1.5,6.6-1.6c6.9-0.1,6.7-5.8,6.6-6.3C93.5,32.3,93,32.8,93,32.8z"/>
	<path class="st2" d="M83.4,41.1c-1.5,0-2.9,0.3-4.2,1c-1.7-2.4-4.5-3.9-7.7-3.9c-5.2,0-9.4,4.2-9.4,9.4s4.2,9.4,9.4,9.4
		c1.5,0,2.9-0.4,4.2-1c1.7,2.4,4.5,3.9,7.7,3.9c5.2,0,9.4-4.2,9.4-9.4S88.6,41.1,83.4,41.1z M83.4,55.2c-2.6,0-4.7-2.1-4.7-4.7
		c0-2.6,2.1-4.7,4.7-4.7c2.6,0,4.7,2.1,4.7,4.7C88.1,53.1,86,55.2,83.4,55.2z M71.6,42.8c1.7,0,3.2,0.9,4.1,2.3
		c-1,1.5-1.7,3.4-1.7,5.3c0,0.4,0,0.7,0.1,1.1c-0.7,0.4-1.6,0.7-2.5,0.7c-2.6,0-4.7-2.1-4.7-4.7C66.9,44.9,69,42.8,71.6,42.8z"/>
	<polygon class="st2" points="49.6,58.1 54.1,58.1 54.1,50.9 59.7,50.9 59.7,47.3 54.1,47.3 54.1,43.3 60.4,43.3 60.4,39.7 
		49.6,39.7 	"/>
	<path class="st2" d="M109.5,47.3c0-4.2-3.4-7.6-7.6-7.6h-7.5v18.4h7.5c4.2,0,7.6-3.4,7.6-7.6c0,0,0-1.2,0-1.6
		C109.5,48.5,109.5,47.3,109.5,47.3z M98.9,43.8h2.3c1.7,0,3.4,2.3,3.4,4c0,0,0,0.8,0,1.1c0,0.3,0,1.1,0,1.1c0,1.7-1.7,4-3.4,4h-2.3
		V43.8z"/>
</g>
</svg>
