<svg version="1.1" id="Layer_1" xmlns="http://www.w3.org/2000/svg" xmlns:xlink="http://www.w3.org/1999/xlink" x="0px" y="0px" width="104.7px" height="104.7px" viewBox="5 6 95.5 95.5" enable-background="new 0 1.37 104.73 104.651" xml:space="preserve">
<g>
	<polygon fill="#000000" points="53.5,42.3 1.5,42.3 1.5,47.6 48.2,47.6"/>
	<polygon fill="#ef7717" points="104.7,1.4 102.7,1.4 73.3,30.8 0,104.3 0,106 5.8,106 104.7,7.1"/>
	<polygon fill="#000000" points="38.2,57.6 1.5,57.6 1.5,62.9 33,62.9"/>
	<polygon fill="#000000" points="101.7,62.5 61.9,102.3 69.4,102.3 101.7,69.9"/>
	<polygon fill="#000000" points="101.7,20.7 20.1,102.3 27.6,102.3 101.7,28.1"/>
	<polygon fill="#000000" points="41,102.3 48.5,102.3 101.7,49 101.7,41.6"/>
	<polygon fill="#000000" points="23.5,72.4 1.5,72.4 1.5,77.6 18.3,77.6"/>
	<polygon fill="#000000" points="8.8,87.1 1.5,87.1 1.5,92.4 3.6,92.4"/>
	<polygon fill="#000000" points="101.7,90.8 101.7,83.3 82.8,102.3 90.2,102.3"/>
	<path fill="#000000" d="M 34.4 37.1 L 1.7 4.1 C 1.6 4.1 1.6 4 1.5 4 v 7.4 l 25.4 25.7 H 34.4 z"/>
	<path fill="#000000" d="M 20.6 2.1 H 13.6 c 0.1 0.4 0.3 0.7 0.6 1 l 33.8 33.9 h 7.4 L 20.6 2.1 z"/>
	<path fill="#000000" d="M 1.5 32.2 l 4.9 4.9 h 7.5 L 2.1 25.3 c -0.2 -0.2 -0.4 -0.3 -0.6 -0.4 V 32.2 z"/>
	<path fill="#000000" d="M 78.1 17.6 L 62.8 2.1 h -7 c 0.1 0.4 0.3 0.7 0.6 1 l 18 18.2 L 78.1 17.6 z"/>
	<path fill="#000000" d="M 89.1 6.6 l -4.6 -4.5 h -7.1 c 0.1 0.4 0.3 0.8 0.6 1.1 l 7.3 7.2 L 89.1 6.6 z"/>
	<path fill="#000000" d="M 67.5 28.3 L 41.5 2.1 h -7 c 0.1 0.4 0.3 0.7 0.6 1 l 28.6 28.8 L 67.5 28.3 z"/>
</g>

</svg>