<svg xmlns="http://www.w3.org/2000/svg" width="105" height="16" viewBox="0 0 105 16"><path fill="#C11F1F" d="M10.424 7.995 14 9.058l-.119.656-3.735-.407 2.903 2.375-.347.526-3.27-1.789 1.744 3.3-.505.347-2.358-2.891.387 3.706-.625.119-1.1-3.577L5.925 15l-.654-.119.387-3.706-2.329 2.891-.535-.348 1.764-3.299-3.28 1.789-.346-.526 2.923-2.375-3.736.407L0 9.058l3.528-1.063L0 6.942l.119-.656 3.736.408L.932 4.319l.346-.527 3.28 1.789-1.764-3.3.535-.347 2.329 2.892-.387-3.707L5.925 1l1.05 3.577L8.075 1l.625.12-.387 3.706 2.358-2.892.505.348L9.432 5.58l3.27-1.789.347.527-2.903 2.375 3.735-.408.119.656z"/><path fill="#111" d="M18.044 12h.924V7.668c0-.696-.072-1.632-.12-2.328h.048l.624 1.752 1.512 4.116h.576l1.512-4.116.624-1.752h.048c-.048.696-.132 1.632-.132 2.328V12h.948V4.128h-1.176L21.92 8.352l-.552 1.608h-.048l-.564-1.608-1.524-4.224h-1.188zm7.916-1.512c0-1.272 1.104-1.908 3.588-2.184 0-.744-.252-1.464-1.2-1.464-.684 0-1.284.312-1.74.624l-.396-.684c.54-.348 1.356-.756 2.292-.756 1.428 0 2.028.948 2.028 2.4V12h-.816l-.084-.696h-.024c-.564.456-1.212.84-1.932.84-.984 0-1.716-.612-1.716-1.656m.972-.072c0 .66.444.936 1.02.936.564 0 1.032-.276 1.596-.78v-1.62c-1.956.24-2.616.72-2.616 1.464m4.64-1.32c0-1.896 1.2-3.072 2.532-3.072.672 0 1.116.252 1.632.672l-.048-.996V3.456h.996V12h-.816l-.084-.684h-.036c-.456.444-1.08.828-1.764.828-1.464 0-2.412-1.104-2.412-3.048m1.02-.012c0 1.392.588 2.232 1.608 2.232.54 0 1.008-.264 1.488-.804V7.464c-.492-.444-.936-.612-1.416-.612-.936 0-1.68.9-1.68 2.232m5.228.012c0-1.908 1.284-3.072 2.616-3.072 1.488 0 2.328 1.068 2.328 2.736 0 .204-.012.396-.036.54h-3.936c.072 1.26.828 2.052 1.944 2.052.552 0 1.02-.18 1.452-.456l.348.648c-.504.324-1.128.6-1.92.6-1.56 0-2.796-1.14-2.796-3.048m.96-.444h3.12c0-1.188-.528-1.848-1.44-1.848-.816 0-1.56.672-1.68 1.848M46.752 12h1.152l.816-3.12c.156-.552.276-1.104.408-1.692h.048c.144.588.252 1.128.396 1.68l.84 3.132h1.2l1.56-5.832h-.936l-.852 3.372c-.12.552-.228 1.08-.36 1.62h-.048c-.132-.54-.264-1.068-.408-1.62l-.912-3.372h-.96l-.9 3.372c-.144.54-.264 1.08-.396 1.62h-.048a44 44 0 0 0-.348-1.62l-.864-3.372h-1.008zm7.796-7.032c.384 0 .684-.264.684-.636 0-.384-.3-.636-.684-.636s-.684.252-.684.636c0 .372.3.636.684.636M54.044 12h.984V6.168h-.984zm2.72-1.8c0 1.152.42 1.944 1.668 1.944.36 0 .756-.108 1.08-.216l-.192-.744c-.192.072-.456.156-.66.156-.672 0-.9-.408-.9-1.128v-3.24h1.572v-.804H57.76V4.536h-.828l-.12 1.632-.912.06v.744h.864zm3.488 1.8h.984V7.776c.588-.588.996-.9 1.596-.9.768 0 1.104.468 1.104 1.56V12h.984V8.304c0-1.488-.552-2.28-1.776-2.28-.804 0-1.392.432-1.944.96l.036-1.2V3.456h-.984zm8.212 0h1.008V8.472h3v-.84h-3V4.968h3.54v-.84h-4.548zm5.408-1.176c0 .852.3 1.32 1.044 1.32.264 0 .432-.036.564-.096l-.132-.744c-.108.024-.156.024-.216.024-.144 0-.276-.12-.276-.432v-7.44h-.984zM76.1 9.096c0-1.956 1.272-3.072 2.7-3.072s2.7 1.116 2.7 3.072c0 1.932-1.272 3.048-2.7 3.048s-2.7-1.116-2.7-3.048m1.02 0c0 1.332.684 2.232 1.68 2.232 1.008 0 1.68-.9 1.68-2.232 0-1.344-.672-2.256-1.68-2.256-.996 0-1.68.912-1.68 2.256m5.432.768c0 1.488.552 2.28 1.788 2.28.804 0 1.38-.42 1.92-1.056h.036l.084.912h.816V6.168h-.984v4.14c-.552.684-.972.984-1.572.984-.768 0-1.092-.468-1.092-1.56V6.168h-.996zM88.764 12h.984V8.256c.396-.984.984-1.344 1.476-1.344.24 0 .372.036.564.096l.192-.864a1.45 1.45 0 0 0-.624-.12c-.66 0-1.26.468-1.656 1.2h-.036l-.084-1.056h-.816zm4.268-7.032c.384 0 .684-.264.684-.636 0-.384-.3-.636-.684-.636s-.684.252-.684.636c0 .372.3.636.684.636M92.528 12h.984V6.168h-.984zm1.904-.66c.552.456 1.344.804 2.172.804 1.38 0 2.136-.792 2.136-1.74 0-1.104-.936-1.452-1.776-1.764-.66-.252-1.296-.468-1.296-1.008 0-.444.336-.84 1.068-.84.516 0 .936.216 1.332.516l.468-.624a2.9 2.9 0 0 0-1.812-.66c-1.26 0-2.004.72-2.004 1.656 0 .984.912 1.38 1.74 1.68.636.24 1.332.504 1.332 1.104 0 .504-.384.912-1.152.912-.696 0-1.212-.288-1.716-.696zm5.276.66h.984V7.776c.588-.588.996-.9 1.596-.9.768 0 1.104.468 1.104 1.56V12h.984V8.304c0-1.488-.552-2.28-1.776-2.28-.804 0-1.392.432-1.944.96l.036-1.2V3.456h-.984z"/></svg>